<svg xmlns="http://www.w3.org/2000/svg" width="14.906" height="18" viewBox="0 0 14.906 18">
  <g id="alarm-clock_1_" data-name="alarm-clock (1)" transform="translate(-44)">
    <g id="Grupo_2480" data-name="Grupo 2480" transform="translate(44)">
      <path id="Caminho_3253" data-name="Caminho 3253" d="M58.443,11.805a2.6,2.6,0,0,1-.991-.743.7.7,0,1,0-1.1.875,3.953,3.953,0,0,0,1.109.948,2.383,2.383,0,0,1-.367.929,1.53,1.53,0,0,1-1.352.671H47.164a1.8,1.8,0,0,1-1.713-1.6,4.223,4.223,0,0,0,.706-.513,3.589,3.589,0,0,0,1.217-2.736V7.172a4.087,4.087,0,0,1,4.009-4.078h.034l.055,0,.049,0a4.1,4.1,0,0,1,4.044,4.078v.984a.7.7,0,0,0,1.406,0V7.172a5.517,5.517,0,0,0-4.852-5.445V.7a.7.7,0,0,0-1.406,0V1.735a5.492,5.492,0,0,0-4.746,5.436V9.633a2.385,2.385,0,0,1-1.506,2.173.691.691,0,0,0-.463.661,3.842,3.842,0,0,0,.7,2.158,2.96,2.96,0,0,0,2.461,1.266h2.179a2.109,2.109,0,0,0,4.219,0h2.179a2.915,2.915,0,0,0,2.507-1.275,3.883,3.883,0,0,0,.657-2.149A.691.691,0,0,0,58.443,11.805Zm-6.99,4.788a.7.7,0,0,1-.7-.7h1.406A.7.7,0,0,1,51.453,16.594Z" transform="translate(-44)" fill="#fff"/>
    </g>
  </g>
</svg>
